# xmcd
# Copyright (C) 1995-1998 Ti Kan
#
# Track frame offsets:
#       150
#       97707
#       181119
#
# Disc length: 3123 seconds
#
# Revision: 0
# Processed by: cddbd v1.5.2PL0 Copyright (c) Steve Scherf et al.
# Submitted via: CD-Import v1.0
#
DISCID=130c3103
DTITLE=Dr Dolittle - 
DYEAR=1900
DGENRE=
TTITLE0=Dr Dolittle 3.1
TTITLE1=Dr Dolittle 3.2
TTITLE2=Dr Dolittle 3.3
EXTD=
EXTT0=
EXTT1=
EXTT2=
PLAYORDER=
